# xmcd CD database file
#
# Track frame offsets:
#	150
#	12897
#	30971
#	48680
#	68263
#	88939
#	107838
#	126470
#	140787
#	156726
#	179459
#	195977
#	211445
#	233896
#	250422
#	264743
#	284242
#	302417
#
# Disc length: 4344 seconds
#
# Revision: 1
# Processed by: cddbd v1.5.2PL0 Copyright (c) Steve Scherf et al.
# Submitted via: CDex 1.70beta2
#
DISCID=1210f612
DTITLE=Jackson Mackay - Best of 1997-2002
DYEAR=2002
DGENRE=Country
TTITLE0=Way down New-Orleans
TTITLE1=Lighten up
TTITLE2=Somdeay, somewhere in the past
TTITLE3=Here we are, here we go
TTITLE4=Money don't make the world go round
TTITLE5=A new star up above
TTITLE6=This is love
TTITLE7=Back to the rodeo
TTITLE8=Sixteen hundred miles
TTITLE9=The yellow groove
TTITLE10=The game
TTITLE11=The lonely bushman
TTITLE12=As good as you
TTITLE13=Choosing blues
TTITLE14=The face of my love
TTITLE15=Hey, hey, the cowboys of the world
TTITLE16=An angel's fallen
TTITLE17=Where are all the cowboys
EXTD=YEAR: 2002
EXTT0=
EXTT1=
EXTT2=
EXTT3=
EXTT4=
EXTT5=
EXTT6=
EXTT7=
EXTT8=
EXTT9=
EXTT10=
EXTT11=
EXTT12=
EXTT13=
EXTT14=
EXTT15=
EXTT16=
EXTT17=
PLAYORDER=
